<?xml version="1.0" encoding="utf-8"?>
<!-- Generator: Adobe Illustrator 24.1.0, SVG Export Plug-In . SVG Version: 6.00 Build 0)  -->
<svg version="1.1" id="Capa_1" xmlns="http://www.w3.org/2000/svg" xmlns:xlink="http://www.w3.org/1999/xlink" x="0px" y="0px"
	 viewBox="0 0 168.7 171.5" style="enable-background:new 0 0 168.7 171.5;" xml:space="preserve">
<style type="text/css">
	.st0{fill:#F4F4F4;}
	.st1{fill:#EEF2F7;}
	.st2{fill:#DCDBDB;}
	.st3{fill:#3C3C3B;}
	.st4{fill:#FCFCFD;}
	.st5{fill:#FFFFFF;}
	.st6{fill:#009FE3;}
</style>
<g>
	<ellipse class="st0" cx="84.3" cy="150.6" rx="80" ry="16.5"/>
	<g>
		<g>
			<path class="st1" d="M138.8,16.9c-5.9-3.2-13.9-7.7-28.5-6.5c-6.1,0.5-12.6,2.2-19.8,5.3c2.7,1.6,5.5,3.4,8.3,4.9
				c1.9,1,3.7,2,5.6,2.9c0.5,0.2,0.9,0.5,1.4,0.7c0.5,0.2,0.9,0.4,1.4,0.6c1,0.4,1.9,0.8,2.8,1.1c1.9,0.7,3.7,1.3,5.5,1.8
				c0.9,0.2,1.8,0.4,2.6,0.6c0.8,0.2,1.7,0.4,2.5,0.5c0.8,0.1,1.6,0.3,2.3,0.4c0.7,0.1,1.4,0.2,2.1,0.3c0.7,0.1,1.3,0.1,1.8,0.2
				c0.6,0,1.1,0.1,1.6,0.1c1.9,0.1,3,0.1,3,0.1s-1.1,0-3,0.1c-0.5,0-1,0-1.6,0c-0.6,0-1.2,0-1.8,0c-0.7,0-1.4-0.1-2.1-0.1
				c-0.7-0.1-1.5-0.1-2.3-0.2c-0.8-0.1-1.7-0.2-2.5-0.3c-0.9-0.1-1.8-0.3-2.7-0.4c-1.8-0.4-3.8-0.8-5.8-1.3c-1-0.3-2-0.6-3-0.9
				c-0.5-0.2-1-0.3-1.5-0.5c-0.5-0.2-1-0.4-1.5-0.6c-2-0.8-4-1.6-6-2.5c-4-1.8-7.8-3.8-11.4-5.6c-1.8-0.9-3.5-1.7-5.2-2.4
				c-0.4-0.2-0.8-0.3-1.2-0.5c-0.4-0.2-0.8-0.3-1.2-0.5c-0.4-0.1-0.8-0.3-1.2-0.4c-0.4-0.1-0.8-0.3-1.1-0.4
				c-0.7-0.3-1.4-0.5-2.1-0.7c-0.7-0.2-1.3-0.3-1.9-0.5c-0.6-0.1-1.2-0.3-1.7-0.4c-0.1,0-0.3-0.1-0.4-0.1c-0.1,0-0.2,0-0.4-0.1
				c-0.2,0-0.5-0.1-0.7-0.1c-0.8-0.2-1.6-0.2-2.1-0.3c-0.4,0-0.6-0.1-0.7-0.1l0,0c-10.5-1.5-19.4-1-26.5,1.4
				c-13.6,4.7-22.3,11.9-26.5,22c-4.2,10.1-4.1,22.9,0.6,39.1c4,14.2,10.8,28.5,16.2,40c3.9,8.3,7.3,15.5,8.7,20.5
				c1.6,6,4.2,9.8,7.8,11.7c6.7,3.5,16.8,0,24.8-2.8c5-1.8,9.4-3.3,12.9-3.3c3.6,0,7.7,1.6,12.6,3.4c7.6,2.8,16.3,6.1,22.7,3
				c3.9-1.8,6.8-5.8,8.9-12.1c1.5-4.5,4.7-10.8,8.3-18.1c7.4-14.8,17.6-35.1,20.8-53.9C161.2,40.6,155.1,25.8,138.8,16.9z"/>
			<g>
				<path class="st2" d="M131.9,30.3c-0.7-0.1-1.4-0.1-2.1-0.2c-0.7-0.1-1.5-0.2-2.3-0.3c-0.8-0.1-1.6-0.3-2.5-0.4
					c-0.9-0.2-1.8-0.4-2.7-0.6c-1.8-0.5-3.7-1-5.7-1.6c-1-0.3-2-0.7-2.9-1.1c-0.5-0.2-1-0.4-1.5-0.6c-0.5-0.2-1-0.4-1.5-0.6
					c-2-0.9-4-1.8-5.9-2.8c-3.9-2-7.6-4.2-11.1-6.2C92,15,90.5,14.1,89,13.4c-0.1,0.5-0.3,1.1-0.4,1.6c0.4,0.2,0.7,0.4,1.1,0.6
					c3.5,1.9,7.2,4.2,11.1,6.2c1.9,1,3.9,2,5.9,2.8c0.5,0.2,1,0.4,1.5,0.6c0.5,0.2,1,0.4,1.5,0.6c1,0.4,2,0.7,2.9,1.1
					c1.9,0.7,3.9,1.2,5.7,1.6c0.9,0.2,1.8,0.4,2.7,0.6c0.9,0.1,1.7,0.3,2.5,0.4c0.8,0.1,1.6,0.2,2.3,0.3c0.7,0.1,1.4,0.1,2.1,0.2
					c0.7,0.1,1.3,0.1,1.8,0.1c0.6,0,1.1,0.1,1.6,0.1c0.2,0,0.5,0,0.7,0C131.9,30.3,131.9,30.3,131.9,30.3z"/>
				<path class="st2" d="M138.8,16.9c-5.5-3-12.9-7.1-25.8-6.6c10.5,0.4,16.9,3.9,21.8,6.6c16.3,8.9,22.4,23.8,18.7,45.3
					c-3.2,18.8-13.4,39.1-20.8,53.9c-3.7,7.3-6.8,13.6-8.3,18.1c-2.1,6.3-5,10.3-8.9,12.1c-1.3,0.6-2.7,1-4.2,1.2
					c2.9,0.3,5.7,0,8.2-1.2c3.9-1.8,6.8-5.8,8.9-12.1c1.5-4.5,4.7-10.8,8.3-18.1c7.4-14.8,17.6-35.1,20.8-53.9
					C161.2,40.6,155.1,25.8,138.8,16.9z"/>
			</g>
			<path class="st3" d="M157.5,62.2c-3.2,18.8-13.4,39.1-20.8,53.9c-3.7,7.3-6.8,13.6-8.3,18.1c-2.1,6.3-5,10.3-8.9,12.1
				c-6.5,3.1-15.1-0.1-22.7-3c-4.8-1.8-9-3.4-12.6-3.4c-3.5,0-7.8,1.5-12.9,3.3c-8.1,2.8-18.1,6.4-24.8,2.8
				c-3.6-1.9-6.2-5.7-7.8-11.7c-1.3-5-4.7-12.2-8.7-20.5c-5.4-11.5-12.2-25.8-16.2-40c-4.6-16.2-4.8-29-0.6-39.1
				c4.3-10.2,13-17.4,26.5-22c7.1-2.4,16-2.9,26.5-1.4l0,0c0.1,0,0.3,0,0.7,0.1c0.5,0.1,1.3,0.1,2.1,0.3c0.2,0,0.4,0.1,0.7,0.1
				c0.1,0,0.2,0,0.4,0.1c0.1,0,0.3,0.1,0.4,0.1c0.5,0.1,1.1,0.2,1.7,0.4c0.6,0.2,1.2,0.3,1.9,0.5c0.7,0.2,1.4,0.4,2.1,0.7
				c0.4,0.1,0.7,0.3,1.1,0.4c0.4,0.1,0.8,0.3,1.2,0.4c0.4,0.1,0.8,0.3,1.2,0.5c0.4,0.2,0.8,0.3,1.2,0.5c1.7,0.7,3.4,1.5,5.2,2.4
				c3.6,1.8,7.5,3.8,11.4,5.6c2,0.9,4,1.8,6,2.5c0.5,0.2,1,0.4,1.5,0.6c0.5,0.2,1,0.4,1.5,0.5c1,0.3,2,0.6,3,0.9
				c2,0.6,3.9,1,5.8,1.3c0.9,0.2,1.8,0.3,2.7,0.4c0.9,0.1,1.7,0.2,2.5,0.3c0.8,0.1,1.6,0.1,2.3,0.2c0.7,0,1.4,0.1,2.1,0.1
				c0.7,0,1.3,0,1.8,0c0.6,0,1.1,0,1.6,0c1.9-0.1,3-0.1,3-0.1s-1.1-0.1-3-0.1c-0.5,0-1-0.1-1.6-0.1c-0.6-0.1-1.2-0.1-1.8-0.2
				c-0.7-0.1-1.3-0.2-2.1-0.3c-0.7-0.1-1.5-0.2-2.3-0.4c-0.8-0.1-1.6-0.3-2.5-0.5c-0.8-0.2-1.7-0.4-2.6-0.6
				c-1.8-0.5-3.6-1.1-5.5-1.8c-0.9-0.3-1.9-0.7-2.8-1.1c-0.5-0.2-0.9-0.4-1.4-0.6c-0.5-0.2-0.9-0.4-1.4-0.7
				c-1.9-0.9-3.8-1.9-5.6-2.9c-2.8-1.6-5.6-3.3-8.3-4.9c7.2-3.1,13.8-4.8,19.8-5.3c14.5-1.2,22.6,3.2,28.5,6.5
				C155.1,25.8,161.2,40.6,157.5,62.2z M141.6,11.8c-6.2-3.4-15.4-8.5-31.7-7.2c-7.8,0.6-16.1,3.1-25.5,7.5
				c-0.5-0.3-1.1-0.6-1.6-0.9c-0.4-0.2-0.8-0.4-1.3-0.6c-0.4-0.2-0.8-0.4-1.2-0.6c-0.4-0.2-0.8-0.4-1.2-0.6
				c-0.4-0.2-0.8-0.3-1.2-0.5c-0.8-0.3-1.5-0.6-2.3-0.9c-0.7-0.3-1.4-0.5-2.1-0.7c-0.7-0.2-1.3-0.4-1.9-0.6c-0.1,0-0.3-0.1-0.4-0.1
				c-0.1,0-0.3-0.1-0.4-0.1c-0.3-0.1-0.5-0.1-0.8-0.2c-1-0.3-1.7-0.4-2.2-0.5c-0.5-0.1-0.8-0.2-0.8-0.2l-0.1,0
				C55.6,3.9,45.8,4.4,37.8,7.2c-15,5.2-25.1,13.7-30,25.3C3.1,43.8,3.2,57.8,8.2,75.4c4.2,14.6,11,29.2,16.5,40.8
				c3.8,8.1,7.1,15,8.3,19.5c2,7.5,5.6,12.7,10.7,15.3c3,1.6,6.2,2.2,9.5,2.2c6.7,0,13.9-2.5,20-4.6c4.3-1.5,8.4-3,10.9-3
				c2.5,0,6.4,1.5,10.5,3c8.3,3.1,18.6,6.9,27.3,2.8c5.3-2.5,9.3-7.7,11.9-15.5c1.4-4.1,4.4-10.2,8-17.3c7.6-15.1,18-35.9,21.4-55.5
				C167.3,39.2,160.1,21.9,141.6,11.8z"/>
			<path class="st4" d="M65.8,14.3C36.1,9.1,6.7,28.5,18.5,74c6,21.1,15.4,37.5,22.3,54.4C36.5,105-2.9,27.7,65.8,14.3z"/>
		</g>
		<g>
			<g>
				<g>
					<g>
						<path class="st3" d="M55.1,69.4C55.5,75.8,60.8,81,67.4,81c6.8,0,12.3-5.5,12.3-12.3c0-2.5-0.7-4.8-2-6.7L55.1,69.4z"/>
						
							<ellipse transform="matrix(0.1596 -0.9872 0.9872 0.1596 -5.1554 129.9431)" class="st5" cx="73.7" cy="68" rx="3.5" ry="3.5"/>
						<circle class="st5" cx="63.6" cy="75.4" r="2"/>
					</g>
					<ellipse class="st6" cx="58.9" cy="84.1" rx="10.3" ry="5.2"/>
					<path class="st5" d="M65.9,82.4c0,0.8-1,1.4-2.3,1.4c-1.3,0-2.3-0.6-2.3-1.4c0-0.8,1-1.4,2.3-1.4C64.8,81,65.9,81.6,65.9,82.4z
						"/>
				</g>
				<g>
					<g>
						<path class="st3" d="M113.5,69.4c-0.3,6.5-5.7,11.6-12.3,11.6C94.5,81,89,75.5,89,68.7c0-2.5,0.7-4.8,2-6.7L113.5,69.4z"/>
						
							<ellipse transform="matrix(0.9872 -0.1596 0.1596 0.9872 -9.6361 16.0244)" class="st5" cx="94.9" cy="68" rx="3.5" ry="3.5"/>
						<circle class="st5" cx="105.1" cy="75.4" r="2"/>
					</g>
					<ellipse class="st6" cx="109.8" cy="84.1" rx="10.3" ry="5.2"/>
					<path class="st5" d="M102.8,82.4c0,0.8,1,1.4,2.3,1.4c1.3,0,2.3-0.6,2.3-1.4c0-0.8-1-1.4-2.3-1.4
						C103.8,81,102.8,81.6,102.8,82.4z"/>
				</g>
			</g>
			<g>
				<path class="st3" d="M101.5,118.8c-0.8,0-1.5-0.4-1.9-1.1c-3.1-4.9-9-7.9-15.2-7.9c-6.3,0-12.1,3-15.2,7.9
					c-0.7,1.1-2.1,1.4-3.2,0.7c-1.1-0.7-1.4-2.1-0.7-3.2c4-6.2,11.3-10.1,19.1-10.1c7.8,0,15.1,3.9,19.1,10.1
					c0.7,1.1,0.4,2.5-0.7,3.2C102.4,118.7,101.9,118.8,101.5,118.8z"/>
			</g>
		</g>
	</g>
</g>
</svg>
